<svg width="665" height="72" viewBox="0 0 665 72" fill="none" xmlns="http://www.w3.org/2000/svg">
<rect width="665" height="72" rx="36" fill="#20AA81"/>
<path d="M298.983 46.24C297.623 46.24 296.367 46.072 295.215 45.736C294.079 45.384 293.103 44.904 292.287 44.296L293.247 41.872C293.791 42.256 294.359 42.584 294.951 42.856C295.543 43.112 296.175 43.312 296.847 43.456C297.519 43.584 298.231 43.648 298.983 43.648C300.247 43.648 301.159 43.44 301.719 43.024C302.279 42.608 302.559 42.064 302.559 41.392C302.559 40.8 302.367 40.352 301.983 40.048C301.599 39.728 300.911 39.464 299.919 39.256L297.207 38.704C295.655 38.384 294.495 37.848 293.727 37.096C292.959 36.344 292.575 35.336 292.575 34.072C292.575 33.016 292.855 32.096 293.415 31.312C293.975 30.528 294.759 29.92 295.767 29.488C296.775 29.056 297.951 28.84 299.295 28.84C300.495 28.84 301.607 29.016 302.631 29.368C303.655 29.704 304.511 30.192 305.199 30.832L304.239 33.136C303.551 32.56 302.799 32.136 301.983 31.864C301.167 31.576 300.255 31.432 299.247 31.432C298.111 31.432 297.223 31.656 296.583 32.104C295.959 32.536 295.647 33.136 295.647 33.904C295.647 34.496 295.839 34.968 296.223 35.32C296.623 35.672 297.295 35.944 298.239 36.136L300.927 36.664C302.527 36.984 303.711 37.512 304.479 38.248C305.247 38.968 305.631 39.944 305.631 41.176C305.631 42.184 305.359 43.072 304.815 43.84C304.271 44.592 303.503 45.184 302.511 45.616C301.519 46.032 300.343 46.24 298.983 46.24ZM312.676 46.24C311.188 46.24 310.076 45.832 309.34 45.016C308.604 44.2 308.236 42.952 308.236 41.272V33.88H311.236V41.248C311.236 42.144 311.42 42.808 311.788 43.24C312.156 43.656 312.716 43.864 313.468 43.864C314.316 43.864 315.004 43.576 315.532 43C316.076 42.424 316.348 41.664 316.348 40.72V33.88H319.348V46H316.42V43.528H316.756C316.404 44.392 315.868 45.064 315.148 45.544C314.444 46.008 313.62 46.24 312.676 46.24ZM329.541 46.24C328.517 46.24 327.621 45.992 326.853 45.496C326.085 44.984 325.573 44.296 325.317 43.432H325.581V46H322.605V28.336H325.605V36.352H325.317C325.589 35.52 326.109 34.864 326.877 34.384C327.645 33.888 328.533 33.64 329.541 33.64C330.613 33.64 331.549 33.896 332.349 34.408C333.149 34.92 333.773 35.648 334.221 36.592C334.669 37.52 334.893 38.64 334.893 39.952C334.893 41.264 334.669 42.392 334.221 43.336C333.773 44.264 333.141 44.984 332.325 45.496C331.525 45.992 330.597 46.24 329.541 46.24ZM328.701 43.936C329.645 43.936 330.405 43.608 330.981 42.952C331.573 42.296 331.869 41.296 331.869 39.952C331.869 38.608 331.573 37.608 330.981 36.952C330.405 36.28 329.645 35.944 328.701 35.944C327.757 35.944 326.997 36.272 326.421 36.928C325.845 37.584 325.557 38.584 325.557 39.928C325.557 41.272 325.845 42.28 326.421 42.952C326.997 43.608 327.757 43.936 328.701 43.936ZM337.487 46V36.904C337.487 36.408 337.471 35.904 337.439 35.392C337.407 34.88 337.359 34.376 337.295 33.88H340.199L340.439 36.28H340.151C340.487 35.448 340.999 34.8 341.687 34.336C342.391 33.872 343.223 33.64 344.183 33.64C345.143 33.64 345.935 33.872 346.559 34.336C347.199 34.784 347.647 35.488 347.903 36.448H347.519C347.855 35.584 348.407 34.904 349.175 34.408C349.943 33.896 350.823 33.64 351.815 33.64C353.175 33.64 354.191 34.04 354.863 34.84C355.535 35.64 355.871 36.888 355.871 38.584V46H352.871V38.704C352.871 37.744 352.711 37.056 352.391 36.64C352.071 36.208 351.559 35.992 350.855 35.992C350.023 35.992 349.367 36.288 348.887 36.88C348.407 37.456 348.167 38.24 348.167 39.232V46H345.167V38.704C345.167 37.744 345.007 37.056 344.687 36.64C344.367 36.208 343.855 35.992 343.151 35.992C342.319 35.992 341.663 36.288 341.183 36.88C340.719 37.456 340.487 38.24 340.487 39.232V46H337.487ZM359.073 46V33.88H362.073V46H359.073ZM358.905 31.6V28.672H362.241V31.6H358.905ZM370.515 46.24C369.075 46.24 367.987 45.864 367.251 45.112C366.515 44.36 366.147 43.232 366.147 41.728V36.136H363.819V33.88H366.147V30.784L369.147 30.016V33.88H372.387V36.136H369.147V41.536C369.147 42.368 369.307 42.952 369.627 43.288C369.947 43.624 370.387 43.792 370.947 43.792C371.251 43.792 371.507 43.768 371.715 43.72C371.939 43.672 372.155 43.608 372.363 43.528V45.904C372.091 46.016 371.787 46.096 371.451 46.144C371.131 46.208 370.819 46.24 370.515 46.24Z" fill="#F5FAFF"/>
</svg>
